<svg xmlns="http://www.w3.org/2000/svg" width="42" height="42" fill-rule="evenodd" stroke-linejoin="round" stroke-miterlimit="2" clip-rule="evenodd"><path d="M21 11c-5.519 0-10 4.481-10 10s4.481 10 10 10 10-4.481 10-10-4.481-10-10-10zm0 2c4.415 0 8 3.585 8 8s-3.585 8-8 8-8-3.585-8-8 3.585-8 8-8zm-1 20v3a1 1 0 0 0 2 0v-3a1 1 0 0 0-2 0zm6.134-1.108 1.5 2.598a1 1 0 0 0 1.732-1l-1.5-2.598a1 1 0 0 0-1.732 1zm-12-1-1.5 2.598a1 1 0 0 0 1.732 1l1.5-2.598a1 1 0 0 0-1.732-1zm-4.026-4.758-2.598 1.5a1 1 0 0 0 1 1.732l2.598-1.5a1 1 0 0 0-1-1.732zm20.784 1.732 2.598 1.5a1 1 0 0 0 1-1.732l-2.598-1.5a1 1 0 0 0-1 1.732zM9 20H6a1 1 0 0 0 0 2h3a1 1 0 0 0 0-2zm24 2h3a1 1 0 0 0 0-2h-3a1 1 0 0 0 0 2zm-1.108-6.134 2.598-1.5a1 1 0 0 0-1-1.732l-2.598 1.5a1 1 0 0 0 1 1.732zm-20.784-1.732-2.598-1.5a1 1 0 0 0-1 1.732l2.598 1.5a1 1 0 0 0 1-1.732zm4.758-4.026-1.5-2.598a1 1 0 0 0-1.732 1l1.5 2.598a1 1 0 0 0 1.732-1zm12 1 1.5-2.598a1 1 0 0 0-1.732-1l-1.5 2.598a1 1 0 0 0 1.732 1zM22 9V6a1 1 0 0 0-2 0v3a1 1 0 0 0 2 0z"/></svg>