<svg xmlns="http://www.w3.org/2000/svg" width="42" height="42" fill-rule="evenodd" stroke-linejoin="round" stroke-miterlimit="2" clip-rule="evenodd"><path fill="#100" d="m27.012 32.07 2.197-.922-2.197-.922c-3.603-1.513-6.137-5.076-6.137-9.226 0-4.15 2.534-7.713 6.137-9.226l2.197-.922-2.197-.922A11.954 11.954 0 0 0 22.375 9c-6.623 0-12 5.377-12 12s5.377 12 12 12c1.643 0 3.21-.331 4.637-.93Zm-2.971-1.208a10.06 10.06 0 0 1-1.666.138c-5.519 0-10-4.481-10-10s4.481-10 10-10c.567 0 1.124.047 1.666.138A11.987 11.987 0 0 0 18.875 21c0 4.084 2.044 7.694 5.164 9.861l.002.001Z"/><path d="m35.902 19.191.449 1.382h1.453l-1.175.854.449 1.382-1.176-.854-1.175.854.449-1.382L34 20.573h1.453l.449-1.382zM10.098 6.5l.449 1.382H12l-1.176.854.449 1.382-1.175-.854-1.176.854.449-1.382-1.175-.854h1.453l.449-1.382zM12 32l.449 1.382h1.453l-1.175.854.449 1.382L12 34.764l-1.176.854.449-1.382-1.175-.854h1.453L12 32z"/></svg>