<svg xmlns="http://www.w3.org/2000/svg" width="42" height="42" fill-rule="evenodd" stroke-linejoin="round" stroke-miterlimit="2" clip-rule="evenodd"><path d="M36 24.5a5.5 5.5 0 0 0-5.5-5.5h-6.697c-.978 0-1.934-.29-2.748-.832A6.954 6.954 0 0 0 17.197 17H12.5A6.5 6.5 0 0 0 6 23.5a6.5 6.5 0 0 0 6.5 6.5h18a5.5 5.5 0 0 0 5.5-5.5Zm-2 0v.012A3.497 3.497 0 0 1 30.5 28h-18a4.5 4.5 0 0 1 0-9h4.697c.978 0 1.934.29 2.748.832A6.954 6.954 0 0 0 23.803 21H30.5a3.5 3.5 0 0 1 3.5 3.5Z"/><path d="M12.786 17.749 12.461 19h4.736c.978 0 1.934.29 2.748.832A6.954 6.954 0 0 0 23.803 21H28.5l1-1c0-4.829-3.817-8.734-8.5-8.734-3.928 0-7.245 2.745-8.214 6.483ZM27.428 19h-3.625c-.978 0-1.934-.29-2.748-.832A6.954 6.954 0 0 0 17.197 17H15.18c1.064-2.209 3.268-3.734 5.82-3.734 3.267 0 5.962 2.497 6.428 5.734Z"/></svg>