<svg xmlns="http://www.w3.org/2000/svg" width="42" height="42" fill-rule="evenodd" stroke-linejoin="round" stroke-miterlimit="2" clip-rule="evenodd"><path d="m24.072 31.629-2 5a.999.999 0 1 0 1.856.742l2-5a.999.999 0 1 0-1.856-.742zm-16 0-2 5a.999.999 0 1 0 1.856.742l2-5a.999.999 0 1 0-1.856-.742zm20 0-2 5a.999.999 0 1 0 1.856.742l2-5a.999.999 0 1 0-1.856-.742zm-16 0-2 5a.999.999 0 1 0 1.856.742l2-5a.999.999 0 1 0-1.856-.742zm4 0-2 5a.999.999 0 1 0 1.856.742l2-5a.999.999 0 1 0-1.856-.742zm4 0-2 5a.999.999 0 1 0 1.856.742l2-5a.999.999 0 1 0-1.856-.742zM10.624 17h-.516a6.5 6.5 0 0 0-6.5 6.5s0 .552 0 0a6.5 6.5 0 0 0 6.5 6.5h18a5.5 5.5 0 1 0 0-11h-1.162c-.469-4.36-3.98-7.734-8.338-7.734-3.661 0-6.791 2.384-7.984 5.734zm.738 2c.455 0 .853-.308.968-.749.742-2.864 3.269-4.985 6.278-4.985C22.2 13.266 25 16.295 25 20a1 1 0 0 0 1 1h2.108a3.5 3.5 0 0 1 3.5 3.5v.012a3.497 3.497 0 0 1-3.5 3.488h-18a4.5 4.5 0 0 1-4.5-4.5c0 .552 0 0 0 0a4.5 4.5 0 0 1 4.5-4.5h1.254z"/><path fill="#100" d="m36.387 21.029 2.197-.922-2.197-.922a7.507 7.507 0 0 1-4.603-6.919c0-3.113 1.9-5.785 4.603-6.92l2.197-.922-2.197-.922a9.467 9.467 0 0 0-3.671-.736c-5.243 0-9.5 4.256-9.5 9.5 0 5.243 4.257 9.5 9.5 9.5a9.468 9.468 0 0 0 3.671-.737Zm-2.972-1.296a7.504 7.504 0 0 1-8.199-7.467 7.503 7.503 0 0 1 8.199-7.468 9.483 9.483 0 0 0-3.631 7.468 9.486 9.486 0 0 0 3.629 7.467h.002Z"/></svg>