<svg xmlns="http://www.w3.org/2000/svg" width="42" height="42" fill-rule="evenodd" stroke-linejoin="round" stroke-miterlimit="2" clip-rule="evenodd"><path d="m14.072 30.629-2 5a.999.999 0 1 0 1.856.742l2-5a.999.999 0 1 0-1.856-.742zm-4 0-2 5a.999.999 0 1 0 1.856.742l2-5a.999.999 0 1 0-1.856-.742zm20 0-2 5a.999.999 0 1 0 1.856.742l2-5a.999.999 0 1 0-1.856-.742zm-4 0-2 5a.999.999 0 1 0 1.856.742l2-5a.999.999 0 1 0-1.856-.742zm-5.371 2.103L19 32l-3 5 3.366-2.699L21 35l3-5-3.299 2.732zM36 23.5a5.5 5.5 0 0 0-5.5-5.5h-6.697c-.978 0-1.934-.29-2.748-.832A6.954 6.954 0 0 0 17.197 16H12.5A6.5 6.5 0 0 0 6 22.5a6.5 6.5 0 0 0 6.5 6.5h18a5.5 5.5 0 0 0 5.5-5.5zm-2 0v.012A3.497 3.497 0 0 1 30.5 27h-18a4.5 4.5 0 0 1 0-9h4.697c.978 0 1.934.29 2.748.832A6.954 6.954 0 0 0 23.803 20H30.5a3.5 3.5 0 0 1 3.5 3.5z"/><path d="m28.5 20 1-1c0-4.829-3.817-8.734-8.5-8.734-3.928 0-7.245 2.745-8.214 6.483L12.461 18h4.736c.978 0 1.934.29 2.748.832A6.954 6.954 0 0 0 23.803 20H28.5zm-1.072-2h-3.625c-.978 0-1.934-.29-2.748-.832A6.954 6.954 0 0 0 17.197 16H15.18c1.064-2.209 3.268-3.734 5.82-3.734 3.267 0 5.962 2.497 6.428 5.734zm4.648-6.55-1.732 1a1 1 0 0 0 1 1.732l1.732-1a1 1 0 0 0-1-1.732zM8.924 13.182l1.732 1a1 1 0 0 0 1-1.732l-1.732-1a1 1 0 0 0-1 1.732zm4.526-5.258 1 1.732a1 1 0 0 0 1.732-1l-1-1.732a1 1 0 0 0-1.732 1zm13.368-1-1 1.732a1 1 0 0 0 1.732 1l1-1.732a1 1 0 0 0-1.732-1zM20 5.633v2a1 1 0 0 0 2 0v-2a1 1 0 0 0-2 0z"/></svg>